<?xml version="1.0" encoding="UTF-8" standalone="no"?>
<!-- Created with Inkscape (http://www.inkscape.org/) -->

<svg
   xmlns:dc="http://purl.org/dc/elements/1.1/"
   xmlns:cc="http://creativecommons.org/ns#"
   xmlns:rdf="http://www.w3.org/1999/02/22-rdf-syntax-ns#"
   xmlns:svg="http://www.w3.org/2000/svg"
   xmlns="http://www.w3.org/2000/svg"
   xmlns:sodipodi="http://sodipodi.sourceforge.net/DTD/sodipodi-0.dtd"
   xmlns:inkscape="http://www.inkscape.org/namespaces/inkscape"
   width="128"
   height="128"
   id="svg2"
   version="1.1"
   inkscape:version="0.48.3.1 r9886"
   sodipodi:docname="SimpleGray_Earth.svg">
  <defs
     id="defs4" />
  <sodipodi:namedview
     id="base"
     pagecolor="#ffffff"
     bordercolor="#666666"
     borderopacity="1.0"
     inkscape:pageopacity="0.0"
     inkscape:pageshadow="2"
     inkscape:zoom="2.0234375"
     inkscape:cx="182.61006"
     inkscape:cy="71.932195"
     inkscape:document-units="px"
     inkscape:current-layer="layer1"
     showgrid="false"
     inkscape:snap-page="true"
     inkscape:window-width="1366"
     inkscape:window-height="721"
     inkscape:window-x="-2"
     inkscape:window-y="-3"
     inkscape:window-maximized="1"
     inkscape:snap-global="false" />
  <metadata
     id="metadata7">
    <rdf:RDF>
      <cc:Work
         rdf:about="">
        <dc:format>image/svg+xml</dc:format>
        <dc:type
           rdf:resource="http://purl.org/dc/dcmitype/StillImage" />
        <dc:title></dc:title>
      </cc:Work>
    </rdf:RDF>
  </metadata>
  <g
     inkscape:label="Layer 1"
     inkscape:groupmode="layer"
     id="layer1"
     transform="translate(0,-924.36218)">
    <path
       sodipodi:type="arc"
       style="fill:#808080;fill-opacity:1;stroke:none"
       id="path3144"
       sodipodi:cx="336.42856"
       sodipodi:cy="336.64789"
       sodipodi:rx="331.42856"
       sodipodi:ry="331.42856"
       d="m 667.85712,336.64789 a 331.42856,331.42856 0 1 1 -662.85712,0 331.42856,331.42856 0 1 1 662.85712,0 z"
       transform="matrix(0.18103449,0,0,0.18103449,3.0948276,927.4173)" />
    <path
       inkscape:connector-curvature="0"
       style="fill:#cccccc;fill-opacity:1;fill-rule:evenodd;stroke:none"
       d="m 15.406258,1004.4459 c 0.227086,1.3085 0.859998,2.7595 1.808788,3.6518 1.43544,1.35 3.570361,2.0368 5.343907,3.075 1.210084,0.7084 3.028023,1.004 3.60699,2.1647 1.185437,2.3764 1.116019,5.6327 1.686215,8.4466 0.879368,4.3396 1.322647,8.8542 2.662479,13.0139 0.624094,1.9376 1.739102,4.1112 3.229307,5.278 1.158574,0.9071 3.320982,1.2716 4.717022,0.9439 1.203061,-0.2825 1.962956,-1.9865 3.08028,-2.7745 0.747456,-0.5271 1.03473,-1.2526 1.772747,-1.7885 1.012065,-0.7348 0.15702,-2.5711 -0.290833,-3.1972 -0.845009,-1.1813 -1.605578,-0.2746 -2.846445,-1.6073 -0.564387,-0.6061 1.336095,-2.1319 1.199008,-3.0355 -0.118023,-0.7779 -0.147061,-2.2916 -0.430547,-3.1293 -2.013243,-5.9382 0.93569,-9.7331 0.962502,-10.3787 0.03789,-0.9122 -0.587699,-4.0735 1.104831,-5.9433 1.156454,-1.2776 3.344071,-1.4475 3.188162,-4.3724 -0.06534,-1.2259 -1.449776,-2.7874 -1.446213,-4.0446 0.0041,-1.4491 2.178166,-1.62623 1.469226,-4.07439 -0.21904,-0.75641 -0.528172,-1.78707 -1.445122,-1.98507 -1.817065,-0.39238 -3.08011,0.6193 -5.017645,0.40806 -1.917507,-0.20906 -4.881942,-2.73133 -6.743046,-3.27955 -1.041223,-0.3067 -3.643289,-1.46805 -4.513574,-2.03021 -0.681863,-0.44044 -1.794763,0.42497 -2.39456,0.37656 -1.373979,-0.11088 -1.694703,1.45359 -3.082394,1.41582 -1.477718,-0.0402 -2.725267,0.48785 -4.095933,1.01828 -1.152628,0.44604 -2.344516,1.27511 -3.107967,2.19176 -0.452044,0.54275 -0.506316,1.44098 -0.538529,2.18647 -0.10685,2.47324 -0.294949,5.07097 0.121344,7.46967 z"
       id="path4183"
       sodipodi:nodetypes="sssssssssssssssssssssssssssss" />
    <path
       inkscape:connector-curvature="0"
       style="fill:#cccccc;fill-opacity:1;fill-rule:evenodd;stroke:none"
       d="m 102.57796,1002.0517 c 1.18471,-1.2994 3.43004,-3.86351 2.81325,-4.51967 -0.82827,-0.88114 -5.573627,1.30419 -7.148427,-0.0922 -3.175445,-2.81577 -3.541875,-9.78122 -7.102308,-12.54434 -4.402763,-3.41681 -11.121212,-5.03722 -16.787278,-5.99545 -2.696826,-0.45608 -6.034317,0.45173 -8.301401,1.75251 -1.483919,0.85143 -2.811712,2.63696 -3.873985,4.15071 -1.3974,1.99129 -4.270115,2.88617 -5.165316,4.8886 -0.273143,0.61098 1.568042,2.635 1.568042,3.32056 0,0.79025 -0.52306,1.74894 -0.645665,2.58265 -0.184855,1.25701 0.166711,2.91198 0.737902,3.87399 0.597152,1.00578 2.378797,1.28918 3.505037,2.02928 1.025974,0.6742 1.940238,2.0742 2.951609,2.2137 0.771894,0.1064 1.602245,-1.4427 2.398183,-1.4758 0.679867,-0.028 1.339735,1.3424 2.029232,1.2913 0.970783,-0.072 2.020096,-1.7504 2.951608,-1.6603 0.974736,0.094 2.310794,1.2684 2.767133,2.2137 0.404548,0.838 -0.545256,2.2116 -0.184475,3.1361 0.62309,1.5967 2.815061,2.8223 3.136083,4.4274 0.293896,1.4695 -1.065319,3.1766 -1.291327,4.7964 -0.142941,1.0244 -0.07101,2.1506 0.184476,3.1361 0.174956,0.6748 0.952491,1.1587 1.106851,1.8447 0.399068,1.7736 -0.109236,3.8776 0.553428,5.5343 0.690158,1.7254 2.210064,4.0625 3.505036,4.6119 0.73426,0.3115 1.623044,-1.6383 2.582658,-2.0293 0.700665,-0.2854 1.760342,0.3739 2.398183,0 1.145424,-0.6714 2.218849,-1.9343 2.951609,-3.136 0.804535,-1.3195 1.047758,-2.9767 1.660279,-4.4275 0.555823,-1.3164 1.090151,-2.6734 1.844757,-3.8739 0.598216,-0.9518 1.848946,-1.5666 2.213707,-2.5827 0.496126,-1.3821 0.487554,-3.1095 0.368949,-4.6119 -0.06587,-0.8343 -1.361397,-1.7784 -0.922377,-2.3982 1.651704,-2.3318 5.043317,-4.0972 7.194547,-6.4566 z"
       id="path5058"
       sodipodi:nodetypes="cssssssssssssssssssssssssssssssss" />
    <path
       inkscape:connector-curvature="0"
       style="fill:#cccccc;fill-opacity:1;fill-rule:evenodd;stroke:none"
       d="M 39.533949,933.71259 C 18.611934,942.95308 3.9999998,963.89152 4,988.22082 c 0,0.67415 0.011428,1.34714 0.033692,2.01591 1.6042107,1.46901 3.2337478,2.56301 4.8123569,2.99298 3.6645771,0.99814 7.4654001,-5.50931 11.3765891,-8.10871 2.913988,-1.93665 5.619567,-0.84214 8.108568,-3.27335 0.836751,-0.81732 1.973438,-4.54102 2.858329,-5.23938 1.151636,-0.90888 3.810003,-0.71992 4.239591,-1.80814 0.52007,-1.31743 -0.890018,-3.61613 -1.392607,-5.40759 -0.472324,-1.68358 1.412891,-2.78944 0.960225,-3.54329 -1.310533,-2.18248 -2.02367,-2.86831 -1.36453,-3.99251 0.317484,-0.54149 2.089946,-1.76942 2.6336,-2.20122 0.926355,-0.73576 2.047611,-2.05035 2.880676,-2.9649 1.801058,-1.97724 2.791609,-2.80846 4.604588,-3.88583 1.319531,-0.78413 2.37087,-0.94149 3.464673,-1.03322 1.604849,-0.1346 3.158041,-0.84808 3.211981,-2.18438 0.002,-0.051 -0.01511,-0.0969 -0.03931,-0.13476 -0.01265,-0.0187 -0.03218,-0.0403 -0.05054,-0.0562 -0.378641,-0.31414 -1.846565,-0.10903 -2.240525,-0.64576 -1.172881,-1.59795 -1.271043,-4.45158 -2.560601,-5.82312 -0.698654,-0.74308 -2.461642,-0.0265 -3.408518,-0.51662 -0.704142,-0.36444 -1.277192,-1.25686 -1.544222,-2.04398 -0.500126,-1.47421 -0.470019,-3.1647 -0.752457,-4.73936 -0.113298,-0.63166 -0.208351,-1.2734 -0.297614,-1.91484 z"
       id="path5063"
       sodipodi:nodetypes="cscsssssssssssscccsscsscc" />
    <path
       inkscape:connector-curvature="0"
       style="fill:#cccccc;fill-opacity:1;fill-rule:evenodd;stroke:none"
       d="m 74.740602,929.31577 c -0.699076,0.31676 -1.378118,0.6554 -2.027142,0.99392 -3.925174,2.04732 -9.335186,4.16099 -10.949936,7.84465 -2.145545,4.89452 -0.769077,12.00798 -0.331306,17.89051 0.171251,2.30118 0.386518,2.85153 1.550358,4.60674 0.752067,1.93029 1.203882,2.93412 3.059838,4.55751 0.445223,2.19871 0.568441,3.71893 3.493149,3.25726 2.79298,2.41726 5.702935,-0.38667 8.068537,0.45995 1.159805,0.43034 5.14684,1.79441 5.840283,2.79653 2.345088,3.38898 1.911466,4.27305 4.020362,7.90604 0.437719,0.75405 2.828575,5.17403 3.616517,5.25635 2.406995,0.25147 6.094801,0.56653 7.940108,-1.04446 3.6673,-3.20162 4.72951,-11.9074 8.59711,-13.39823 3.47348,-1.33891 10.52958,2.07769 13.42631,4.90782 1.8005,1.75912 -0.4427,6.37697 0.66822,8.86103 0.40725,0.9106 1.21673,1.84012 2.1563,2.58867 -0.55323,-28.80163 -21.58405,-52.6204 -49.128714,-57.48436 z"
       id="path5090"
       sodipodi:nodetypes="csssccccsssssssccc" />
  </g>
</svg>
